<svg xmlns="http://www.w3.org/2000/svg" width="32" height="32" viewBox="0 0 24 24" fill="none">
  <path d="M12 2 6 8l2 2 4-4 4 4 2-2-6-6ZM12 22l-6-6 2-2 4 4 4-4 2 2-6 6ZM19.785 9.702l-2.262 2.263 2.262 2.262 2.263-2.262-2.263-2.263ZM4.285 9.702l-2.263 2.263 2.263 2.262 2.263-2.262-2.263-2.263Z" stroke="#f2ba2f" stroke-width="1.5" stroke-miterlimit="10" stroke-linecap="round" stroke-linejoin="round"></path>
  <path d="M11.93 9.525 9.453 12l2.475 2.475L14.404 12l-2.475-2.475Z" stroke="#f2ba2f" stroke-width="1.5" stroke-miterlimit="10" stroke-linecap="round" stroke-linejoin="round"></path>
</svg>