<svg width="44" height="44" viewBox="0 0 44 44" fill="none" xmlns="http://www.w3.org/2000/svg">
<path d="M43.8807 22.0004C43.8807 34.0867 34.0831 43.8846 21.9969 43.8846C9.91057 43.8846 0.112793 34.0867 0.112793 22.0004C0.112793 9.91422 9.91057 0.11644 21.9969 0.11644C34.0829 0.11644 43.8807 9.91422 43.8807 22.0004Z" fill="#8A92B2"/>
<path d="M21.9255 10.1538L21.7686 10.6873V26.1673L21.9255 26.3239L29.1111 22.0765L21.9255 10.1538Z" fill="white"/>
<path d="M21.9259 10.1538L14.7402 22.0765L21.9259 26.324V18.8105V10.1538Z" fill="white"/>
<path d="M21.9258 28.6618L21.8374 28.7696V34.2839L21.9258 34.5422L29.1158 24.4165L21.9258 28.6618Z" fill="white"/>
<path d="M21.9259 34.5423V28.6618L14.7402 24.4165L21.9259 34.5423Z" fill="white"/>
<path d="M21.9258 26.3239L29.1113 22.0766L21.9258 18.8105V26.3239Z" fill="white"/>
<path d="M14.7402 22.0765L21.9257 26.3239V18.8105L14.7402 22.0765Z" fill="white"/>
</svg>
