<svg width="44" height="44" viewBox="0 0 44 44" fill="none" xmlns="http://www.w3.org/2000/svg">
<path d="M43.8807 22.0004C43.8807 34.0867 34.0831 43.8846 21.9969 43.8846C9.91057 43.8846 0.112793 34.0867 0.112793 22.0004C0.112793 9.91423 9.91057 0.116455 21.9969 0.116455C34.0829 0.116455 43.8807 9.91423 43.8807 22.0004Z" fill="#00A478"/>
<path d="M19.7527 21.6172V17.7887H14.5601V14.4329H29.0704V17.836H23.8777V21.6172H19.7527Z" fill="white"/>
<path fill-rule="evenodd" clip-rule="evenodd" d="M12.3276 22.0426C12.3276 20.7665 16.5012 19.7266 21.6938 19.7266C26.8865 19.7266 31.06 20.7665 31.06 22.0426C31.06 23.3188 26.8865 24.3587 21.6938 24.3587C16.5012 24.3587 12.3276 23.3188 12.3276 22.0426ZM30.2835 22.0426C29.9438 21.57 27.1291 20.1047 21.6938 20.1047C16.2585 20.1047 13.4438 21.5227 13.1041 22.0426C13.4438 22.5153 16.2585 23.2243 21.6938 23.2243C27.1776 23.2243 29.9438 22.5153 30.2835 22.0426Z" fill="white"/>
<path d="M23.8773 22.7989V20.152C23.1978 20.1047 22.4699 20.0575 21.742 20.0575C21.0625 20.0575 20.4317 20.0575 19.8008 20.1047V22.7516C20.3831 22.7516 21.0625 22.7989 21.742 22.7989C22.4699 22.8461 23.1978 22.8461 23.8773 22.7989Z" fill="white"/>
<path d="M21.6936 24.3586C21.0142 24.3586 20.3833 24.3586 19.7524 24.3114V31.3539H23.8289V24.2641C23.1495 24.3114 22.4216 24.3586 21.6936 24.3586Z" fill="white"/>
</svg>
