<svg xmlns="http://www.w3.org/2000/svg" xmlns:xlink="http://www.w3.org/1999/xlink" version="1.1" id="Layer_1" x="0px" y="0px" style="enable-background:new 0 0 2030 556;" xml:space="preserve" viewBox="471.93 51.8 1086.14 452.4">
<style type="text/css">
	.st0{fill:#E1E1FF;}
	.st1{fill:#4444BC;}
	.st2{fill:#A3A3EF;}
	.st3{fill:#6A6AEA;}
	.st4{fill:#7A7AEA;}
	.st5{fill:#3636A3;}
</style>
<g>
	<g>
		<g>
			<g>
				<polygon class="st0" points="471.93,250.57 475.22,240.03 557.12,323.67 536.29,479.72 533.83,477.77     "/>
				<g>
					<polygon class="st0" points="678.76,51.8 487.88,195.09 478.6,228.56 566.02,311.95 688.91,51.8      "/>
					<polygon class="st1" points="688.91,51.8 719.64,51.8 910.3,207.04 914.27,221.89 566.02,311.95      "/>
				</g>
			</g>
			<polygon class="st2" points="570.28,325.88 549.11,483.57 561.41,493.3 749.97,364.89    "/>
			<polygon class="st3" points="916.66,233.48 917.52,236.54 749.97,364.89 570.28,325.88    "/>
			<polygon class="st4" points="561.53,493.3 575.29,504.2 828.41,503.33 840.53,493.74 750.09,364.89    "/>
			<polygon class="st5" points="917.59,236.22 925.03,263.93 862.96,476 840.55,493.74 749.97,364.89    "/>
		</g>
	</g>
	<g>
		<path class="st3" d="M1021.33,328.51l12.44-10.73c7.81,28.05,34.39,38.3,55.85,38.3c20,0,37.56-8.05,37.56-28.78    c0-19.27-13.42-26.09-38.29-31.95l-17.81-3.9c-22.93-5.36-44.88-15.36-44.88-43.9c0-29.02,25.12-44.39,52.69-44.39    c30,0,52.44,13.42,61.95,38.05l-13.41,10.73c-7.56-22.93-25.12-33.66-48.78-33.66c-19.76,0-35.61,10.24-35.61,28.05    c0,17.8,11.95,25.12,33.17,30.24l19.27,4.63c25.12,5.86,47.81,15.61,47.81,45.61c0,28.54-23.66,44.15-53.66,44.15    C1060.11,370.95,1031.82,358.76,1021.33,328.51z"/>
		<path class="st3" d="M1153.22,414.13V251.68h16.1v30.73c3.9-18.29,16.59-33.66,39.03-33.66c30.49,0,48.78,24.39,48.78,61.22    c0,37.08-18.29,61.22-48.78,61.22c-22.44,0-35.12-15.37-39.03-33.42v76.34H1153.22z M1203.47,357.54    c21.22,0,37.32-14.64,37.32-47.56s-16.1-47.56-37.32-47.56c-23.66,0-34.15,17.07-34.15,36.58v21.95    C1169.32,340.47,1179.81,357.54,1203.47,357.54z"/>
		<path class="st3" d="M1272.24,230.71v-25.37h16.1v25.37H1272.24z M1272.24,368.76V251.68h16.1v117.08H1272.24z"/>
		<path class="st3" d="M1310.28,368.76V251.68h16.1v32.68c4.15-19.02,17.56-35.13,40.98-35.13c23.17,0,38.78,13.66,38.78,40.49    v79.03h-16.1v-75.37c0-19.02-8.78-30.73-29.02-30.73c-24.64,0-34.63,18.05-34.63,38.3v67.8H1310.28z"/>
		<path class="st3" d="M1420.27,310.22c0-38.05,21.71-60.98,53.41-60.98c31.95,0,51.95,21.47,51.95,56.83c0,2.93-0.49,5.85-0.73,7.8    h-89.27c0.98,29.27,16.83,43.9,40,43.9c23.66,0,33.9-12.93,39.03-24.39l9.76,11.47c-8.29,14.39-23.9,26.34-48.78,26.34    C1442.95,371.2,1420.27,349,1420.27,310.22z M1435.88,302.17H1511c-1.46-26.34-15.85-39.75-37.32-39.75    C1452.22,262.42,1438.07,275.83,1435.88,302.17z"/>
		<path class="st3" d="M1541.97,368.76V205.34h16.1v163.42H1541.97z"/>
	</g>
</g>
</svg>